<svg width="20" height="20" viewBox="0 0 20 20" fill="none" xmlns="http://www.w3.org/2000/svg">
<path d="M10 0C11.3132 0 12.6136 0.258658 13.8268 0.761205C15.0401 1.26375 16.1425 2.00035 17.0711 2.92893C17.9997 3.85752 18.7362 4.95991 19.2388 6.17317C19.7413 7.38642 20 8.68678 20 10C20 12.6522 18.9464 15.1957 17.0711 17.0711C15.1957 18.9464 12.6522 20 10 20C8.68678 20 7.38642 19.7413 6.17317 19.2388C4.95991 18.7362 3.85752 17.9997 2.92893 17.0711C1.05357 15.1957 0 12.6522 0 10C0 7.34784 1.05357 4.8043 2.92893 2.92893C4.8043 1.05357 7.34784 0 10 0V0ZM10 2C6.27 2 3.14 4.55 2.25 8L12 17.75C15.45 16.86 18 13.73 18 10H12.75V11.5H16.2C15.958 12.499 15.4777 13.4246 14.8004 14.1978C14.123 14.971 13.2685 15.5687 12.31 15.94L4.06 7.69C5 5.31 7.3 3.63 10 3.63C12.13 3.63 14 4.67 15.18 6.28L16.41 5.22C15.6682 4.21902 14.7017 3.40618 13.5883 2.84691C12.475 2.28764 11.2459 1.99755 10 2V2ZM2 10C2 12.1217 2.84285 14.1566 4.34315 15.6569C5.84344 17.1571 7.87827 18 10 18C10.04 18 10.09 18 2 10Z" fill="black"/>
</svg>
